<mxfile host="app.diagrams.net" modified="2023-01-15T12:21:34.426Z" agent="5.0 (Macintosh; Intel Mac OS X 10_15_7) AppleWebKit/537.36 (KHTML, like Gecko) Chrome/108.0.0.0 Safari/537.36" version="20.8.5" etag="vtjLBN1Zx4GxTHbBQqZ9" type="github">
  <diagram id="9ZJkX_y48NaqwRsVtfdY" name="Page-1">
    <mxGraphModel dx="954" dy="623" grid="1" gridSize="10" guides="1" tooltips="1" connect="1" arrows="1" fold="1" page="1" pageScale="1" pageWidth="850" pageHeight="1100" math="0" shadow="0">
      <root>
        <mxCell id="0" />
        <mxCell id="1" parent="0" />
        <mxCell id="Hy6vXB68GyfNuf0z555P-1" value="이용자&lt;br&gt;" style="shape=umlActor;verticalLabelPosition=bottom;verticalAlign=top;html=1;" vertex="1" parent="1">
          <mxGeometry x="50" y="220" width="30" height="60" as="geometry" />
        </mxCell>
        <mxCell id="Hy6vXB68GyfNuf0z555P-4" value="게시판 서비스" style="shape=umlFrame;whiteSpace=wrap;html=1;width=80;height=20;" vertex="1" parent="1">
          <mxGeometry x="155" y="25" width="540" height="540" as="geometry" />
        </mxCell>
        <mxCell id="Hy6vXB68GyfNuf0z555P-20" style="rounded=0;orthogonalLoop=1;jettySize=auto;html=1;exitX=0;exitY=0.5;exitDx=0;exitDy=0;entryX=1;entryY=0.3333333333333333;entryDx=0;entryDy=0;entryPerimeter=0;startArrow=none;startFill=0;endArrow=none;endFill=0;" edge="1" parent="1" source="Hy6vXB68GyfNuf0z555P-5" target="Hy6vXB68GyfNuf0z555P-1">
          <mxGeometry relative="1" as="geometry" />
        </mxCell>
        <mxCell id="Hy6vXB68GyfNuf0z555P-5" value="회원 가입" style="rounded=1;whiteSpace=wrap;html=1;arcSize=40;fontColor=#000000;fillColor=#ffffc0;strokeColor=#ff0000;" vertex="1" parent="1">
          <mxGeometry x="180" y="220" width="120" height="40" as="geometry" />
        </mxCell>
        <mxCell id="Hy6vXB68GyfNuf0z555P-23" style="edgeStyle=none;rounded=0;orthogonalLoop=1;jettySize=auto;html=1;exitX=0;exitY=0.5;exitDx=0;exitDy=0;startArrow=none;startFill=0;endArrow=none;endFill=0;" edge="1" parent="1" source="Hy6vXB68GyfNuf0z555P-10">
          <mxGeometry relative="1" as="geometry">
            <mxPoint x="80" y="240" as="targetPoint" />
          </mxGeometry>
        </mxCell>
        <mxCell id="Hy6vXB68GyfNuf0z555P-28" style="edgeStyle=none;rounded=0;orthogonalLoop=1;jettySize=auto;html=1;exitX=0.5;exitY=0;exitDx=0;exitDy=0;entryX=0.5;entryY=1;entryDx=0;entryDy=0;dashed=1;startArrow=none;startFill=0;endArrow=classic;endFill=1;" edge="1" parent="1" source="Hy6vXB68GyfNuf0z555P-10" target="Hy6vXB68GyfNuf0z555P-12">
          <mxGeometry relative="1" as="geometry" />
        </mxCell>
        <mxCell id="Hy6vXB68GyfNuf0z555P-10" value="게시판 보기" style="rounded=1;whiteSpace=wrap;html=1;arcSize=40;fontColor=#000000;fillColor=#ffffc0;strokeColor=#ff0000;" vertex="1" parent="1">
          <mxGeometry x="180" y="310" width="120" height="40" as="geometry" />
        </mxCell>
        <mxCell id="Hy6vXB68GyfNuf0z555P-24" style="edgeStyle=none;rounded=0;orthogonalLoop=1;jettySize=auto;html=1;exitX=0;exitY=0.5;exitDx=0;exitDy=0;startArrow=none;startFill=0;endArrow=none;endFill=0;" edge="1" parent="1" source="Hy6vXB68GyfNuf0z555P-11">
          <mxGeometry relative="1" as="geometry">
            <mxPoint x="80" y="240" as="targetPoint" />
          </mxGeometry>
        </mxCell>
        <mxCell id="Hy6vXB68GyfNuf0z555P-29" style="edgeStyle=none;rounded=0;orthogonalLoop=1;jettySize=auto;html=1;exitX=1;exitY=0;exitDx=0;exitDy=0;dashed=1;startArrow=none;startFill=0;endArrow=classic;endFill=1;" edge="1" parent="1" source="Hy6vXB68GyfNuf0z555P-11">
          <mxGeometry relative="1" as="geometry">
            <mxPoint x="330" y="110" as="targetPoint" />
          </mxGeometry>
        </mxCell>
        <mxCell id="Hy6vXB68GyfNuf0z555P-40" style="edgeStyle=none;rounded=0;orthogonalLoop=1;jettySize=auto;html=1;exitX=1;exitY=0.5;exitDx=0;exitDy=0;entryX=0;entryY=0.5;entryDx=0;entryDy=0;startArrow=none;startFill=0;endArrow=none;endFill=0;" edge="1" parent="1" source="Hy6vXB68GyfNuf0z555P-11" target="Hy6vXB68GyfNuf0z555P-35">
          <mxGeometry relative="1" as="geometry" />
        </mxCell>
        <mxCell id="Hy6vXB68GyfNuf0z555P-11" value="게시글 보기" style="rounded=1;whiteSpace=wrap;html=1;arcSize=40;fontColor=#000000;fillColor=#ffffc0;strokeColor=#ff0000;" vertex="1" parent="1">
          <mxGeometry x="180" y="400" width="120" height="40" as="geometry" />
        </mxCell>
        <mxCell id="Hy6vXB68GyfNuf0z555P-22" style="edgeStyle=none;rounded=0;orthogonalLoop=1;jettySize=auto;html=1;exitX=0;exitY=0.5;exitDx=0;exitDy=0;entryX=1;entryY=0.3333333333333333;entryDx=0;entryDy=0;entryPerimeter=0;startArrow=none;startFill=0;endArrow=none;endFill=0;" edge="1" parent="1" source="Hy6vXB68GyfNuf0z555P-12" target="Hy6vXB68GyfNuf0z555P-1">
          <mxGeometry relative="1" as="geometry" />
        </mxCell>
        <mxCell id="Hy6vXB68GyfNuf0z555P-12" value="회원 로그인" style="rounded=1;whiteSpace=wrap;html=1;arcSize=40;fontColor=#000000;fillColor=#ffffc0;strokeColor=#ff0000;" vertex="1" parent="1">
          <mxGeometry x="270" y="70" width="120" height="40" as="geometry" />
        </mxCell>
        <mxCell id="Hy6vXB68GyfNuf0z555P-26" value="include" style="edgeStyle=none;rounded=0;orthogonalLoop=1;jettySize=auto;html=1;exitX=0;exitY=0.5;exitDx=0;exitDy=0;entryX=1;entryY=0.5;entryDx=0;entryDy=0;startArrow=classic;startFill=1;endArrow=none;endFill=0;dashed=1;" edge="1" parent="1" source="Hy6vXB68GyfNuf0z555P-13" target="Hy6vXB68GyfNuf0z555P-12">
          <mxGeometry relative="1" as="geometry" />
        </mxCell>
        <mxCell id="Hy6vXB68GyfNuf0z555P-37" style="edgeStyle=none;rounded=0;orthogonalLoop=1;jettySize=auto;html=1;exitX=1;exitY=0.5;exitDx=0;exitDy=0;entryX=0;entryY=0.5;entryDx=0;entryDy=0;startArrow=none;startFill=0;endArrow=classic;endFill=1;strokeColor=none;" edge="1" parent="1" source="Hy6vXB68GyfNuf0z555P-13" target="Hy6vXB68GyfNuf0z555P-35">
          <mxGeometry relative="1" as="geometry" />
        </mxCell>
        <mxCell id="Hy6vXB68GyfNuf0z555P-13" value="인증" style="rounded=1;whiteSpace=wrap;html=1;arcSize=40;fontColor=#000000;fillColor=#ffffc0;strokeColor=#ff0000;" vertex="1" parent="1">
          <mxGeometry x="480" y="70" width="120" height="40" as="geometry" />
        </mxCell>
        <mxCell id="Hy6vXB68GyfNuf0z555P-27" value="extend" style="edgeStyle=none;rounded=0;orthogonalLoop=1;jettySize=auto;html=1;exitX=0;exitY=0.5;exitDx=0;exitDy=0;entryX=1;entryY=0.5;entryDx=0;entryDy=0;startArrow=none;startFill=0;endArrow=classic;endFill=1;dashed=1;" edge="1" parent="1" source="Hy6vXB68GyfNuf0z555P-14" target="Hy6vXB68GyfNuf0z555P-12">
          <mxGeometry relative="1" as="geometry" />
        </mxCell>
        <mxCell id="Hy6vXB68GyfNuf0z555P-14" value="로그인 실패" style="rounded=1;whiteSpace=wrap;html=1;arcSize=40;fontColor=#000000;fillColor=#ffffc0;strokeColor=#ff0000;" vertex="1" parent="1">
          <mxGeometry x="480" y="140" width="120" height="40" as="geometry" />
        </mxCell>
        <mxCell id="Hy6vXB68GyfNuf0z555P-31" style="edgeStyle=none;rounded=0;orthogonalLoop=1;jettySize=auto;html=1;exitX=0;exitY=0.5;exitDx=0;exitDy=0;dashed=1;startArrow=none;startFill=0;endArrow=classic;endFill=1;" edge="1" parent="1" source="Hy6vXB68GyfNuf0z555P-15">
          <mxGeometry relative="1" as="geometry">
            <mxPoint x="300" y="330" as="targetPoint" />
          </mxGeometry>
        </mxCell>
        <mxCell id="Hy6vXB68GyfNuf0z555P-15" value="게시판 검색" style="rounded=1;whiteSpace=wrap;html=1;arcSize=40;fontColor=#000000;fillColor=#ffffc0;strokeColor=#ff0000;" vertex="1" parent="1">
          <mxGeometry x="340" y="330" width="120" height="40" as="geometry" />
        </mxCell>
        <mxCell id="Hy6vXB68GyfNuf0z555P-30" style="edgeStyle=none;rounded=0;orthogonalLoop=1;jettySize=auto;html=1;exitX=0;exitY=0.5;exitDx=0;exitDy=0;entryX=1;entryY=0.5;entryDx=0;entryDy=0;dashed=1;startArrow=none;startFill=0;endArrow=classic;endFill=1;" edge="1" parent="1" source="Hy6vXB68GyfNuf0z555P-16" target="Hy6vXB68GyfNuf0z555P-10">
          <mxGeometry relative="1" as="geometry" />
        </mxCell>
        <mxCell id="Hy6vXB68GyfNuf0z555P-16" value="게시판 정렬" style="rounded=1;whiteSpace=wrap;html=1;arcSize=40;fontColor=#000000;fillColor=#ffffc0;strokeColor=#ff0000;" vertex="1" parent="1">
          <mxGeometry x="340" y="275" width="120" height="40" as="geometry" />
        </mxCell>
        <mxCell id="Hy6vXB68GyfNuf0z555P-33" style="edgeStyle=none;rounded=0;orthogonalLoop=1;jettySize=auto;html=1;exitX=0;exitY=0.5;exitDx=0;exitDy=0;entryX=1;entryY=0.5;entryDx=0;entryDy=0;dashed=1;startArrow=none;startFill=0;endArrow=classic;endFill=1;" edge="1" parent="1" source="Hy6vXB68GyfNuf0z555P-18" target="Hy6vXB68GyfNuf0z555P-11">
          <mxGeometry relative="1" as="geometry" />
        </mxCell>
        <mxCell id="Hy6vXB68GyfNuf0z555P-41" style="edgeStyle=none;rounded=0;orthogonalLoop=1;jettySize=auto;html=1;exitX=1;exitY=0.5;exitDx=0;exitDy=0;startArrow=none;startFill=0;endArrow=none;endFill=0;" edge="1" parent="1" source="Hy6vXB68GyfNuf0z555P-18">
          <mxGeometry relative="1" as="geometry">
            <mxPoint x="750" y="180" as="targetPoint" />
          </mxGeometry>
        </mxCell>
        <mxCell id="Hy6vXB68GyfNuf0z555P-18" value="게시글 쓰기, 수정, 삭제" style="rounded=1;whiteSpace=wrap;html=1;arcSize=50;fontColor=#000000;fillColor=#ffffc0;strokeColor=#ff0000;" vertex="1" parent="1">
          <mxGeometry x="335" y="400" width="120" height="40" as="geometry" />
        </mxCell>
        <mxCell id="Hy6vXB68GyfNuf0z555P-32" style="edgeStyle=none;rounded=0;orthogonalLoop=1;jettySize=auto;html=1;exitX=0.5;exitY=0;exitDx=0;exitDy=0;dashed=1;startArrow=none;startFill=0;endArrow=classic;endFill=1;" edge="1" parent="1" source="Hy6vXB68GyfNuf0z555P-19" target="Hy6vXB68GyfNuf0z555P-4">
          <mxGeometry relative="1" as="geometry" />
        </mxCell>
        <mxCell id="Hy6vXB68GyfNuf0z555P-34" style="edgeStyle=none;rounded=0;orthogonalLoop=1;jettySize=auto;html=1;exitX=0;exitY=0.5;exitDx=0;exitDy=0;dashed=1;startArrow=none;startFill=0;endArrow=classic;endFill=1;" edge="1" parent="1" source="Hy6vXB68GyfNuf0z555P-19">
          <mxGeometry relative="1" as="geometry">
            <mxPoint x="300" y="420" as="targetPoint" />
          </mxGeometry>
        </mxCell>
        <mxCell id="Hy6vXB68GyfNuf0z555P-42" style="edgeStyle=none;rounded=0;orthogonalLoop=1;jettySize=auto;html=1;exitX=1;exitY=0.5;exitDx=0;exitDy=0;startArrow=none;startFill=0;endArrow=none;endFill=0;" edge="1" parent="1" source="Hy6vXB68GyfNuf0z555P-19">
          <mxGeometry relative="1" as="geometry">
            <mxPoint x="750" y="180" as="targetPoint" />
          </mxGeometry>
        </mxCell>
        <mxCell id="Hy6vXB68GyfNuf0z555P-19" value="&lt;span style=&quot;font-weight: normal;&quot;&gt;댓글 보기, 쓰기 , 수정, 삭제&lt;/span&gt;" style="rounded=1;whiteSpace=wrap;html=1;arcSize=50;fontColor=#000000;fillColor=#ffffc0;strokeColor=#ff0000;fontStyle=1" vertex="1" parent="1">
          <mxGeometry x="335" y="460" width="120" height="40" as="geometry" />
        </mxCell>
        <mxCell id="Hy6vXB68GyfNuf0z555P-38" style="edgeStyle=none;rounded=0;orthogonalLoop=1;jettySize=auto;html=1;exitX=0;exitY=0.5;exitDx=0;exitDy=0;entryX=1;entryY=0.5;entryDx=0;entryDy=0;startArrow=none;startFill=0;endArrow=classic;endFill=1;" edge="1" parent="1" source="Hy6vXB68GyfNuf0z555P-35" target="Hy6vXB68GyfNuf0z555P-10">
          <mxGeometry relative="1" as="geometry" />
        </mxCell>
        <mxCell id="Hy6vXB68GyfNuf0z555P-39" style="edgeStyle=none;rounded=0;orthogonalLoop=1;jettySize=auto;html=1;exitX=0;exitY=0.5;exitDx=0;exitDy=0;startArrow=none;startFill=0;endArrow=none;endFill=0;" edge="1" parent="1" source="Hy6vXB68GyfNuf0z555P-35">
          <mxGeometry relative="1" as="geometry">
            <mxPoint x="600" y="90" as="targetPoint" />
          </mxGeometry>
        </mxCell>
        <mxCell id="Hy6vXB68GyfNuf0z555P-35" value="DB" style="html=1;dropTarget=0;" vertex="1" parent="1">
          <mxGeometry x="750" y="130" width="80" height="90" as="geometry" />
        </mxCell>
      </root>
    </mxGraphModel>
  </diagram>
</mxfile>
